HIERARCHY
ROOT Hips
{
	OFFSET 0.000000 0.000000 0.000000
	CHANNELS 6 Xposition Yposition Zposition Zrotation Yrotation Xrotation 
	JOINT LHipJoint
	{
		OFFSET 0.000000 0.000000 0.000000
		CHANNELS 3 Zrotation Yrotation Xrotation
		JOINT LeftUpLeg
		{
			OFFSET 1.363060 -1.794630 0.839290
			CHANNELS 3 Zrotation Yrotation Xrotation
			JOINT LeftLeg
			{
				OFFSET 2.448110 -6.726130 0.000000
				CHANNELS 3 Zrotation Yrotation Xrotation
				JOINT LeftFoot
				{
					OFFSET 2.562200 -7.039590 0.000000
					CHANNELS 3 Zrotation Yrotation Xrotation
					JOINT LeftToeBase
					{
						OFFSET 0.157640 -0.433110 2.322550
						CHANNELS 3 Zrotation Yrotation Xrotation
						End Site
						{
							OFFSET 0.000000 0.000000 0.000000
						}
					}
				}
			}
		}
	}
	JOINT RHipJoint
	{
		OFFSET 0.000000 0.000000 0.000000
		CHANNELS 3 Zrotation Yrotation Xrotation
		JOINT RightUpLeg
		{
			OFFSET -1.305520 -1.794630 0.839290
			CHANNELS 3 Zrotation Yrotation Xrotation
			JOINT RightLeg
			{
				OFFSET -2.542530 -6.985550 0.000000
				CHANNELS 3 Zrotation Yrotation Xrotation
				JOINT RightFoot
				{
					OFFSET -2.568260 -7.056230 0.000000
					CHANNELS 3 Zrotation Yrotation Xrotation
					JOINT RightToeBase
					{
						OFFSET -0.164730 -0.452590 2.363150
						CHANNELS 3 Zrotation Yrotation Xrotation
						End Site
						{
							OFFSET 0.000000 0.000000 0.000000
						}
					}
				}
			}
		}
	}
}
MOTION
Frames: 19
Frame Time: 0.008333
1.845096 16.992970 0.249043 168.461076 -77.592165 -153.432082 -10.543023 2.058536 0.300980 -10.540255 20.209364 -25.802417 -2.634856 -0.337364 17.914993 2.516651 15.369643 -7.435485 0.199100 -0.000001 -46.964700 9.727825 -1.642089 5.949295 -0.269160 8.267271 -28.572377 0.810030 -0.690200 26.431355 -2.455140 -8.978292 -11.303139 0.025000 -0.000000 -58.722100
1.847694 16.978148 0.242678 169.296907 -76.492536 -154.245486 -10.542211 2.090089 0.218433 -10.769889 20.793845 -26.121828 -2.651656 -0.292679 18.525426 2.600760 15.811322 -7.759263 0.112100 0.000001 -46.871700 9.710794 -1.656563 6.130537 -0.514031 8.718227 -29.141823 0.817423 -0.722656 26.871355 -2.330050 -8.344161 -11.381626 0.045599 -0.000000 -59.129200
1.849060 16.967151 0.238477 170.110792 -75.362027 -155.032431 -10.546335 2.124014 0.145264 -10.987794 21.372894 -26.388525 -2.664200 -0.257127 19.015175 2.687919 16.294519 -8.011476 0.043900 0.000000 -46.770300 9.687542 -1.681464 6.314777 -0.741260 9.151335 -29.659600 0.833334 -0.744149 27.152720 -2.190129 -7.665531 -11.353030 0.045500 0.000000 -59.620400
1.849372 16.960304 0.236517 170.893954 -74.204865 -155.789024 -10.555848 2.159903 0.078683 -11.190469 21.944780 -26.590025 -2.672547 -0.230599 19.377666 2.776876 16.814225 -8.187876 -0.003000 0.000000 -46.664100 9.658415 -1.714834 6.497283 -0.950827 9.566791 -30.112738 0.857159 -0.754953 27.273945 -2.036882 -6.949716 -11.215539 0.027900 0.000000 -60.184600
1.848795 16.957780 0.236830 171.642949 -73.024685 -156.515503 -10.571220 2.197776 0.015680 -11.374955 22.510964 -26.717082 -2.677318 -0.212559 19.608934 2.865955 17.362726 -8.285588 -0.026199 -0.000000 -46.558700 9.623767 -1.754425 6.673586 -1.142088 9.964222 -30.489581 0.888570 -0.754991 27.233606 -1.871884 -6.203378 -10.970200 -0.003200 -0.000001 -60.807000
1.847356 16.959657 0.239391 172.360784 -71.826509 -157.215573 -10.592889 2.237540 -0.046811 -11.537333 23.075712 -26.766978 -2.679786 -0.201971 19.708739 2.952734 17.927051 -8.303120 -0.023600 -0.000000 -46.459500 9.583689 -1.797966 6.840264 -1.312915 10.345896 -30.780540 0.927308 -0.743809 27.029719 -1.697274 -5.435139 -10.619545 -0.043100 -0.000000 -61.468600
1.845344 16.965740 0.244076 173.037104 -70.614555 -157.882528 -10.620622 2.280446 -0.109773 -11.678614 23.638323 -26.737506 -2.680999 -0.197929 19.678521 3.035671 18.498646 -8.241345 0.006700 0.000000 -46.376700 9.539572 -1.842772 6.993121 -1.463550 10.702484 -30.980060 0.973806 -0.721124 26.664903 -1.513563 -4.644115 -10.171015 -0.086800 -0.000000 -62.157400
1.842417 16.975918 0.250691 173.689443 -69.394801 -158.526495 -10.654737 2.326283 -0.175982 -11.794860 24.208902 -26.638407 -2.683215 -0.198845 19.524371 3.111374 19.057243 -8.100476 0.066400 -0.000000 -46.316800 9.490931 -1.887365 7.131887 -1.589271 11.041783 -31.085440 1.027923 -0.686003 26.136784 -1.323969 -3.843306 -9.628282 -0.130200 0.000000 -62.852800
1.838658 16.989895 0.258943 174.317318 -68.172762 -159.145398 -10.694745 2.375812 -0.246082 -11.887260 24.791776 -26.479656 -2.688208 -0.203380 19.254451 3.177463 19.587578 -7.883011 0.156000 0.000000 -46.290600 9.438613 -1.930025 7.255730 -1.688393 11.360410 -31.098720 1.090012 -0.637980 25.448189 -1.130041 -3.036827 -8.998073 -0.169000 0.000000 -63.543800
1.833877 17.007300 0.268510 174.926021 -66.953852 -159.738295 -10.740245 2.429602 -0.320609 -11.956889 25.393520 -26.274773 -2.697946 -0.210210 18.879275 3.231344 20.072480 -7.591812 0.275600 -0.000000 -46.308700 9.383207 -1.969840 7.365400 -1.759112 11.658196 -31.024540 1.160312 -0.576669 24.603111 -0.933700 -2.231037 -8.286503 -0.199800 -0.000000 -64.221199
1.827819 17.027667 0.278966 175.520163 -65.744537 -160.300761 -10.790584 2.488073 -0.398106 -12.007487 26.016533 -26.044156 -2.714134 -0.218195 18.412865 3.271122 20.496949 -7.230962 0.423900 -0.000001 -46.380100 9.325081 -2.006626 7.463934 -1.800822 11.936465 -30.874779 1.238797 -0.501807 23.607997 -0.737165 -1.434329 -7.498746 -0.219700 -0.000000 -64.878700
1.820418 17.050584 0.289735 176.097112 -64.551725 -160.822301 -10.844512 2.551429 -0.476212 -12.046007 26.659397 -25.810511 -2.738019 -0.226341 17.872030 3.295605 20.849403 -6.804362 0.599299 0.000000 -46.515000 9.264968 -2.040514 7.555725 -1.816170 12.198032 -30.666580 1.324830 -0.413791 22.474760 -0.542854 -0.656599 -6.640959 -0.226700 0.000001 -65.506200
1.811961 17.075531 0.300864 176.662332 -63.374404 -161.319626 -10.902575 2.619679 -0.561783 -12.065898 27.346314 -25.563074 -2.771369 -0.233249 17.263411 3.300909 21.109008 -6.315444 0.797000 0.000000 -46.721400 9.204338 -2.070561 7.635721 -1.801354 12.435911 -30.384992 1.419650 -0.313662 21.209839 -0.350383 0.105043 -5.716485 -0.218500 0.000000 -66.123700
1.802102 17.102008 0.311267 177.201105 -62.226005 -161.753215 -10.961319 2.692751 -0.642304 -12.090077 28.041968 -25.352838 -2.813459 -0.238971 16.616514 3.290842 21.285047 -5.772235 1.014300 -0.000000 -47.002299 9.143806 -2.098514 7.717500 -1.770076 12.661237 -30.082129 1.520072 -0.202493 19.840736 -0.164364 0.829518 -4.734979 -0.195200 0.000000 -66.698900
1.791453 17.129504 0.321342 177.721891 -61.102892 -162.154421 -11.021922 2.769949 -0.729220 -12.104820 28.780518 -25.151570 -2.865704 -0.241880 15.935545 3.261017 21.355737 -5.179281 1.243500 0.000000 -47.359700 9.085257 -2.122883 7.791378 -1.716203 12.863995 -29.728313 1.627636 -0.082347 18.376528 0.016658 1.525060 -3.699249 -0.155300 -0.000000 -67.266500
1.779982 17.157462 0.330223 178.204119 -60.018522 -162.484447 -11.080432 2.850923 -0.810172 -12.133808 29.517008 -24.998437 -2.925728 -0.242717 15.247330 3.217501 21.343584 -4.547607 1.480500 0.000000 -47.785300 9.030359 -2.144793 7.867591 -1.656515 13.049396 -29.372616 1.738735 0.044573 16.852896 0.189273 2.177094 -2.623564 -0.099900 0.000000 -67.794300
1.768021 17.185414 0.338109 178.650359 -58.976720 -162.756125 -11.136398 2.934691 -0.888030 -12.175204 30.253451 -24.883530 -2.992573 -0.240906 14.563469 3.160905 21.249542 -3.886251 1.718301 -0.000000 -48.272101 8.980703 -2.163507 7.942336 -1.592909 13.211910 -29.011523 1.852795 0.175590 15.292936 0.353423 2.788266 -1.518199 -0.029200 0.000001 -68.289299
1.756196 17.212880 0.344988 179.051065 -57.984084 -162.969461 -11.188310 3.020016 -0.962507 -12.229967 30.975599 -24.801592 -3.063990 -0.236438 13.897217 3.094257 21.086759 -3.206601 1.951000 -0.000000 -48.807100 8.938358 -2.178089 8.012842 -1.530095 13.346339 -28.649406 1.967981 0.307801 13.724633 0.508484 3.359798 -0.397126 0.056000 0.000000 -68.747200
1.744718 17.239418 0.350935 179.401977 -57.049418 -163.123647 -11.235052 3.106055 -1.030290 -12.302047 31.663698 -24.753533 -3.137513 -0.229734 13.262105 3.021553 20.872488 -2.523172 2.173199 0.000000 -49.370500 8.904307 -2.188420 8.078383 -1.472195 13.446800 -28.297148 2.082634 0.438827 12.175380 0.653975 3.893892 0.724011 0.154700 0.000000 -69.163201
